<svg xmlns="http://www.w3.org/2000/svg" xmlns:xlink="http://www.w3.org/1999/xlink" width="266" zoomAndPan="magnify" viewBox="0 0 199.5 48.75" height="65" preserveAspectRatio="xMidYMid meet" version="1.0"><defs><g/><clipPath id="516e4452d5"><path d="M 28 3.726562 L 53 3.726562 L 53 8 L 28 8 Z M 28 3.726562 " clip-rule="nonzero"/></clipPath><clipPath id="1f63a8d0a8"><path d="M 2.273438 15 L 9 15 L 9 47 L 2.273438 47 Z M 2.273438 15 " clip-rule="nonzero"/></clipPath><clipPath id="e529767b19"><path d="M 2.273438 15 L 7 15 L 7 43 L 2.273438 43 Z M 2.273438 15 " clip-rule="nonzero"/></clipPath><clipPath id="73fb1d664f"><path d="M 2.273438 42 L 9 42 L 9 47 L 2.273438 47 Z M 2.273438 42 " clip-rule="nonzero"/></clipPath><clipPath id="e34c5a2367"><path d="M 25 23 L 42 23 L 42 47.003906 L 25 47.003906 Z M 25 23 " clip-rule="nonzero"/></clipPath><clipPath id="d414508df9"><path d="M 20 24 L 26 24 L 26 47.003906 L 20 47.003906 Z M 20 24 " clip-rule="nonzero"/></clipPath><clipPath id="c06c2e032e"><path d="M 20 43 L 26 43 L 26 47.003906 L 20 47.003906 Z M 20 43 " clip-rule="nonzero"/></clipPath></defs><path fill="#bd1c2e" d="M 49.046875 7.898438 L 28.933594 5.066406 L 22.933594 35.183594 L 49.046875 43.332031 L 49.046875 7.898438 " fill-opacity="1" fill-rule="nonzero"/><path fill="#901824" d="M 55.929688 39.433594 L 52.222656 6.660156 L 49.046875 7.898438 L 49.046875 43.332031 L 55.929688 39.433594 " fill-opacity="1" fill-rule="nonzero"/><g clip-path="url(#516e4452d5)"><path fill="#74141d" d="M 52.222656 6.660156 L 32.152344 3.730469 L 28.933594 5.066406 L 49.046875 7.898438 L 52.222656 6.660156 " fill-opacity="1" fill-rule="nonzero"/></g><path fill="#7c1520" d="M 55.929688 39.433594 L 51.460938 38.429688 L 50.769531 7.230469 L 52.222656 6.660156 L 55.929688 39.433594 " fill-opacity="1" fill-rule="nonzero"/><path fill="#bd1c2e" d="M 51.460938 38.429688 L 49.046875 43.332031 L 55.929688 39.433594 Z M 51.460938 38.429688 " fill-opacity="1" fill-rule="nonzero"/><path fill="#74141d" d="M 43.238281 12.433594 C 43.238281 12.832031 43.558594 13.15625 43.957031 13.15625 C 44.355469 13.15625 44.679688 12.832031 44.679688 12.433594 C 44.679688 12.035156 44.355469 11.710938 43.957031 11.710938 C 43.558594 11.710938 43.238281 12.035156 43.238281 12.433594 " fill-opacity="1" fill-rule="nonzero"/><path fill="#74141d" d="M 30.445312 10.335938 C 30.445312 10.734375 30.765625 11.058594 31.164062 11.058594 C 31.5625 11.058594 31.886719 10.734375 31.886719 10.335938 C 31.886719 9.9375 31.5625 9.613281 31.164062 9.613281 C 30.765625 9.613281 30.445312 9.9375 30.445312 10.335938 " fill-opacity="1" fill-rule="nonzero"/><path fill="#1b2a4a" d="M 30.660156 12.378906 C 30.632812 11.691406 30.667969 10.976562 30.761719 10.257812 C 30.765625 10.234375 30.777344 10.214844 30.792969 10.203125 C 30.8125 10.191406 30.832031 10.1875 30.855469 10.191406 L 31.472656 10.292969 C 31.515625 10.296875 31.542969 10.339844 31.539062 10.382812 C 31.421875 11.113281 31.378906 11.84375 31.40625 12.558594 C 31.5 14.765625 32.21875 16.8125 33.441406 18.324219 C 34.65625 19.828125 36.214844 20.617188 37.839844 20.550781 C 37.988281 20.546875 38.136719 20.53125 38.28125 20.511719 C 41.355469 20.082031 43.640625 16.589844 43.59375 12.390625 C 43.59375 12.367188 43.601562 12.34375 43.621094 12.328125 C 43.636719 12.3125 43.660156 12.304688 43.683594 12.308594 L 44.214844 12.398438 C 44.253906 12.402344 44.285156 12.4375 44.28125 12.476562 C 44.226562 16.988281 41.675781 20.746094 38.347656 21.210938 C 38.183594 21.234375 38.015625 21.246094 37.847656 21.253906 C 36.023438 21.332031 34.273438 20.445312 32.914062 18.761719 C 31.5625 17.089844 30.761719 14.820312 30.660156 12.378906 " fill-opacity="1" fill-rule="nonzero"/><path fill="#f68b41" d="M 8.15625 16.328125 L 25.148438 13.933594 L 30.214844 39.371094 L 8.15625 46.253906 L 8.15625 16.328125 " fill-opacity="1" fill-rule="nonzero"/><g clip-path="url(#1f63a8d0a8)"><path fill="#c17236" d="M 2.34375 42.960938 L 5.472656 15.277344 L 8.15625 16.328125 L 8.15625 46.253906 L 2.34375 42.960938 " fill-opacity="1" fill-rule="nonzero"/></g><path fill="#704322" d="M 5.472656 15.277344 L 22.425781 12.804688 L 25.148438 13.933594 L 8.15625 16.328125 L 5.472656 15.277344 " fill-opacity="1" fill-rule="nonzero"/><g clip-path="url(#e529767b19)"><path fill="#92592b" d="M 2.34375 42.960938 L 6.121094 42.113281 L 6.703125 15.757812 L 5.472656 15.277344 L 2.34375 42.960938 " fill-opacity="1" fill-rule="nonzero"/></g><g clip-path="url(#73fb1d664f)"><path fill="#704322" d="M 6.121094 42.113281 L 8.15625 46.253906 L 2.34375 42.960938 Z M 6.121094 42.113281 " fill-opacity="1" fill-rule="nonzero"/></g><path fill="#704322" d="M 13.0625 20.15625 C 13.0625 20.492188 12.792969 20.765625 12.457031 20.765625 C 12.121094 20.765625 11.847656 20.492188 11.847656 20.15625 C 11.847656 19.816406 12.121094 19.542969 12.457031 19.542969 C 12.792969 19.542969 13.0625 19.816406 13.0625 20.15625 " fill-opacity="1" fill-rule="nonzero"/><path fill="#704322" d="M 23.867188 18.382812 C 23.867188 18.722656 23.597656 18.996094 23.261719 18.996094 C 22.925781 18.996094 22.652344 18.722656 22.652344 18.382812 C 22.652344 18.046875 22.925781 17.773438 23.261719 17.773438 C 23.597656 17.773438 23.867188 18.046875 23.867188 18.382812 " fill-opacity="1" fill-rule="nonzero"/><path fill="#1b2a4a" d="M 23.6875 20.109375 C 23.710938 19.527344 23.679688 18.925781 23.601562 18.316406 C 23.597656 18.300781 23.589844 18.28125 23.574219 18.273438 C 23.558594 18.261719 23.542969 18.257812 23.523438 18.261719 L 23 18.347656 C 22.964844 18.351562 22.941406 18.386719 22.945312 18.421875 C 23.042969 19.042969 23.082031 19.660156 23.054688 20.261719 C 22.980469 22.125 22.371094 23.855469 21.339844 25.128906 C 20.3125 26.402344 18.996094 27.070312 17.625 27.011719 C 17.5 27.007812 17.375 26.996094 17.25 26.976562 C 14.652344 26.613281 12.722656 23.664062 12.765625 20.117188 C 12.765625 20.097656 12.757812 20.078125 12.742188 20.066406 C 12.726562 20.054688 12.707031 20.046875 12.6875 20.050781 L 12.238281 20.125 C 12.203125 20.128906 12.183594 20.160156 12.183594 20.191406 C 12.226562 24.003906 14.382812 27.175781 17.195312 27.566406 C 17.332031 27.585938 17.476562 27.601562 17.617188 27.605469 C 19.15625 27.671875 20.636719 26.921875 21.78125 25.5 C 22.925781 24.085938 23.601562 22.171875 23.6875 20.109375 " fill-opacity="1" fill-rule="nonzero"/><g clip-path="url(#e34c5a2367)"><path fill="#46babd" d="M 25.144531 24.835938 L 37.730469 23.0625 L 41.484375 41.90625 L 25.144531 47.003906 L 25.144531 24.835938 " fill-opacity="1" fill-rule="nonzero"/></g><g clip-path="url(#d414508df9)"><path fill="#40a3a9" d="M 20.839844 44.566406 L 23.15625 24.058594 L 25.144531 24.835938 L 25.144531 47.003906 L 20.839844 44.566406 " fill-opacity="1" fill-rule="nonzero"/></g><path fill="#2b6a70" d="M 23.15625 24.058594 L 35.714844 22.226562 L 37.730469 23.0625 L 25.144531 24.835938 L 23.15625 24.058594 " fill-opacity="1" fill-rule="nonzero"/><path fill="#36868d" d="M 20.839844 44.566406 L 23.636719 43.9375 L 24.066406 24.414062 L 23.15625 24.058594 L 20.839844 44.566406 " fill-opacity="1" fill-rule="nonzero"/><g clip-path="url(#c06c2e032e)"><path fill="#2b6a70" d="M 23.636719 43.9375 L 25.144531 47.003906 L 20.839844 44.566406 Z M 23.636719 43.9375 " fill-opacity="1" fill-rule="nonzero"/></g><path fill="#2b6a70" d="M 28.78125 27.671875 C 28.78125 27.921875 28.578125 28.125 28.328125 28.125 C 28.082031 28.125 27.878906 27.921875 27.878906 27.671875 C 27.878906 27.421875 28.082031 27.21875 28.328125 27.21875 C 28.578125 27.21875 28.78125 27.421875 28.78125 27.671875 " fill-opacity="1" fill-rule="nonzero"/><path fill="#2b6a70" d="M 36.785156 26.359375 C 36.785156 26.609375 36.582031 26.8125 36.332031 26.8125 C 36.085938 26.8125 35.882812 26.609375 35.882812 26.359375 C 35.882812 26.109375 36.085938 25.90625 36.332031 25.90625 C 36.582031 25.90625 36.785156 26.109375 36.785156 26.359375 " fill-opacity="1" fill-rule="nonzero"/><path fill="#1b2a4a" d="M 36.648438 27.636719 C 36.667969 27.207031 36.644531 26.761719 36.585938 26.308594 L 36.566406 26.277344 L 36.527344 26.269531 L 36.140625 26.332031 C 36.113281 26.335938 36.097656 26.363281 36.101562 26.390625 C 36.171875 26.847656 36.199219 27.304688 36.183594 27.75 C 36.125 29.128906 35.671875 30.410156 34.910156 31.355469 C 34.152344 32.296875 33.171875 32.792969 32.15625 32.75 C 32.066406 32.746094 31.972656 32.738281 31.878906 32.726562 C 29.957031 32.457031 28.527344 30.273438 28.558594 27.644531 C 28.558594 27.628906 28.550781 27.617188 28.539062 27.605469 C 28.53125 27.597656 28.515625 27.589844 28.5 27.59375 L 28.167969 27.648438 C 28.144531 27.652344 28.125 27.675781 28.128906 27.699219 C 28.160156 30.523438 29.757812 32.871094 31.839844 33.164062 C 31.941406 33.175781 32.050781 33.1875 32.152344 33.191406 C 33.292969 33.238281 34.390625 32.683594 35.238281 31.632812 C 36.085938 30.585938 36.585938 29.164062 36.648438 27.636719 " fill-opacity="1" fill-rule="nonzero"/><g fill="#000000" fill-opacity="1"><g transform="translate(64.364007, 24.752056)"><g><path d="M 4.484375 0 L 1.875 0 L 1.875 -14.40625 L 5.59375 -14.40625 L 9.25 -3.8125 L 9.453125 -3.8125 L 13.078125 -14.40625 L 16.71875 -14.40625 L 16.71875 0 L 14.015625 0 L 14.015625 -9.515625 L 13.765625 -9.5625 L 10.4375 0 L 8.0625 0 L 4.734375 -9.5625 L 4.484375 -9.515625 Z M 4.484375 0 "/></g></g></g><g fill="#000000" fill-opacity="1"><g transform="translate(89.962995, 24.752056)"><g><path d="M 4.71875 -6.328125 L 4.71875 -2.390625 L 11.609375 -2.390625 L 11.609375 0 L 1.875 0 L 1.875 -14.40625 L 11.4375 -14.40625 L 11.4375 -12.03125 L 4.71875 -12.03125 L 4.71875 -8.65625 L 10.59375 -8.65625 L 10.59375 -6.328125 Z M 4.71875 -6.328125 "/></g></g></g><g fill="#000000" fill-opacity="1"><g transform="translate(109.353758, 24.752056)"><g><path d="M 1.875 0 L 1.875 -14.40625 L 7.65625 -14.40625 C 9.144531 -14.40625 10.269531 -14.0625 11.03125 -13.375 C 11.789062 -12.6875 12.171875 -11.738281 12.171875 -10.53125 C 12.171875 -9.65625 11.945312 -8.9375 11.5 -8.375 C 11.0625 -7.820312 10.398438 -7.398438 9.515625 -7.109375 L 9.515625 -6.90625 C 9.972656 -6.707031 10.34375 -6.410156 10.625 -6.015625 C 10.90625 -5.628906 11.171875 -5.054688 11.421875 -4.296875 L 12.859375 0 L 9.921875 0 L 8.515625 -4.3125 C 8.367188 -4.738281 8.203125 -5.070312 8.015625 -5.3125 C 7.835938 -5.550781 7.609375 -5.722656 7.328125 -5.828125 C 7.054688 -5.941406 6.695312 -6 6.25 -6 L 4.71875 -6 L 4.71875 0 Z M 7.3125 -8.265625 C 8.695312 -8.265625 9.390625 -8.90625 9.390625 -10.1875 C 9.390625 -11.5 8.695312 -12.15625 7.3125 -12.15625 L 4.71875 -12.15625 L 4.71875 -8.265625 Z M 7.3125 -8.265625 "/></g></g></g><g fill="#000000" fill-opacity="1"><g transform="translate(129.828497, 24.752056)"><g><path d="M 4.640625 0 L 1.875 0 L 1.875 -14.40625 L 5.140625 -14.40625 L 10.921875 -5.125 L 11.171875 -5.171875 L 11.171875 -14.40625 L 13.921875 -14.40625 L 13.921875 0 L 11 0 L 4.875 -9.921875 L 4.640625 -9.875 Z M 4.640625 0 "/></g></g></g><g fill="#000000" fill-opacity="1"><g transform="translate(152.628857, 24.752056)"><g><path d="M 4.71875 0 L 1.875 0 L 1.875 -14.40625 L 4.71875 -14.40625 Z M 4.71875 0 "/></g></g></g><g fill="#000000" fill-opacity="1"><g transform="translate(166.235126, 24.752056)"><g><path d="M 3.171875 0 L 0.25 0 L 4.515625 -7.40625 L 0.453125 -14.40625 L 3.484375 -14.40625 L 6.46875 -9.25 L 6.71875 -9.25 L 9.75 -14.40625 L 12.625 -14.40625 L 8.5625 -7.40625 L 12.828125 0 L 9.8125 0 L 6.609375 -5.5625 L 6.375 -5.5625 Z M 3.171875 0 "/></g></g></g><g fill="#ff3131" fill-opacity="1"><g transform="translate(81.124853, 37.635043)"><g><path d="M 5.109375 0 L 4.390625 0 L 3.875 -1.5625 L 1.453125 -1.5625 L 0.921875 0 L 0.21875 0 L 2.203125 -5.671875 L 3.125 -5.671875 Z M 2.609375 -4.984375 L 1.640625 -2.109375 L 3.6875 -2.109375 L 2.703125 -4.984375 Z M 2.609375 -4.984375 "/></g></g></g><g fill="#ff3131" fill-opacity="1"><g transform="translate(88.733047, 37.635043)"><g><path d="M 2.21875 0.078125 C 1.875 0.078125 1.570312 0 1.3125 -0.15625 C 1.050781 -0.320312 0.84375 -0.570312 0.6875 -0.90625 C 0.539062 -1.238281 0.46875 -1.648438 0.46875 -2.140625 C 0.46875 -2.628906 0.546875 -3.039062 0.703125 -3.375 C 0.859375 -3.707031 1.070312 -3.953125 1.34375 -4.109375 C 1.613281 -4.273438 1.929688 -4.359375 2.296875 -4.359375 C 2.578125 -4.359375 2.832031 -4.304688 3.0625 -4.203125 C 3.289062 -4.097656 3.488281 -3.921875 3.65625 -3.671875 L 3.734375 -3.6875 L 3.734375 -6 L 4.359375 -6 L 4.359375 0 L 3.734375 0 L 3.734375 -0.625 L 3.65625 -0.640625 C 3.507812 -0.429688 3.316406 -0.257812 3.078125 -0.125 C 2.835938 0.0078125 2.550781 0.078125 2.21875 0.078125 Z M 2.421875 -0.484375 C 2.816406 -0.484375 3.132812 -0.617188 3.375 -0.890625 C 3.613281 -1.171875 3.734375 -1.585938 3.734375 -2.140625 C 3.734375 -2.703125 3.613281 -3.117188 3.375 -3.390625 C 3.132812 -3.660156 2.816406 -3.796875 2.421875 -3.796875 C 2.003906 -3.796875 1.6875 -3.660156 1.46875 -3.390625 C 1.25 -3.128906 1.140625 -2.710938 1.140625 -2.140625 C 1.140625 -1.035156 1.566406 -0.484375 2.421875 -0.484375 Z M 2.421875 -0.484375 "/></g></g></g><g fill="#ff3131" fill-opacity="1"><g transform="translate(96.119721, 37.635043)"><g><path d="M 0.75 0 L 0.75 -4.28125 L 1.34375 -4.28125 L 1.34375 -3.65625 L 1.421875 -3.640625 C 1.566406 -3.878906 1.742188 -4.054688 1.953125 -4.171875 C 2.160156 -4.296875 2.40625 -4.359375 2.6875 -4.359375 C 3.019531 -4.359375 3.273438 -4.296875 3.453125 -4.171875 C 3.640625 -4.046875 3.785156 -3.84375 3.890625 -3.5625 L 3.96875 -3.5625 C 4.113281 -3.832031 4.296875 -4.03125 4.515625 -4.15625 C 4.734375 -4.289062 5 -4.359375 5.3125 -4.359375 C 5.75 -4.359375 6.078125 -4.238281 6.296875 -4 C 6.515625 -3.769531 6.625 -3.410156 6.625 -2.921875 L 6.625 0 L 5.984375 0 L 5.984375 -2.90625 C 5.984375 -3.21875 5.914062 -3.445312 5.78125 -3.59375 C 5.65625 -3.738281 5.445312 -3.8125 5.15625 -3.8125 C 4.8125 -3.8125 4.53125 -3.6875 4.3125 -3.4375 C 4.101562 -3.1875 4 -2.78125 4 -2.21875 L 4 0 L 3.359375 0 L 3.359375 -2.90625 C 3.359375 -3.21875 3.289062 -3.445312 3.15625 -3.59375 C 3.03125 -3.738281 2.828125 -3.8125 2.546875 -3.8125 C 2.203125 -3.8125 1.921875 -3.691406 1.703125 -3.453125 C 1.484375 -3.210938 1.375 -2.820312 1.375 -2.28125 L 1.375 0 Z M 0.75 0 "/></g></g></g><g fill="#ff3131" fill-opacity="1"><g transform="translate(105.6944, 37.635043)"><g><path d="M 1.0625 -5.109375 C 0.925781 -5.109375 0.816406 -5.148438 0.734375 -5.234375 C 0.648438 -5.316406 0.609375 -5.425781 0.609375 -5.5625 C 0.609375 -5.6875 0.648438 -5.789062 0.734375 -5.875 C 0.816406 -5.957031 0.925781 -6 1.0625 -6 C 1.195312 -6 1.304688 -5.957031 1.390625 -5.875 C 1.472656 -5.789062 1.515625 -5.6875 1.515625 -5.5625 C 1.515625 -5.425781 1.472656 -5.316406 1.390625 -5.234375 C 1.304688 -5.148438 1.195312 -5.109375 1.0625 -5.109375 Z M 0.75 0 L 0.75 -4.28125 L 1.375 -4.28125 L 1.375 0 Z M 0.75 0 "/></g></g></g><g fill="#ff3131" fill-opacity="1"><g transform="translate(110.088597, 37.635043)"><g><path d="M 0.75 0 L 0.75 -4.28125 L 1.34375 -4.28125 L 1.34375 -3.609375 L 1.421875 -3.59375 C 1.566406 -3.84375 1.75 -4.03125 1.96875 -4.15625 C 2.195312 -4.289062 2.46875 -4.359375 2.78125 -4.359375 C 3.300781 -4.359375 3.675781 -4.226562 3.90625 -3.96875 C 4.132812 -3.707031 4.25 -3.300781 4.25 -2.75 L 4.25 0 L 3.625 0 L 3.625 -2.734375 C 3.625 -2.992188 3.585938 -3.203125 3.515625 -3.359375 C 3.453125 -3.515625 3.347656 -3.628906 3.203125 -3.703125 C 3.066406 -3.773438 2.890625 -3.8125 2.671875 -3.8125 C 2.285156 -3.8125 1.972656 -3.679688 1.734375 -3.421875 C 1.492188 -3.171875 1.375 -2.765625 1.375 -2.203125 L 1.375 0 Z M 0.75 0 "/></g></g></g><g fill="#ff3131" fill-opacity="1"><g transform="translate(117.292611, 37.635043)"><g/></g></g><g fill="#ff3131" fill-opacity="1"><g transform="translate(121.511923, 37.635043)"><g><path d="M 2.890625 -5.671875 C 3.273438 -5.671875 3.609375 -5.601562 3.890625 -5.46875 C 4.171875 -5.332031 4.382812 -5.132812 4.53125 -4.875 C 4.675781 -4.613281 4.75 -4.304688 4.75 -3.953125 C 4.75 -3.597656 4.675781 -3.289062 4.53125 -3.03125 C 4.382812 -2.769531 4.171875 -2.566406 3.890625 -2.421875 C 3.609375 -2.285156 3.273438 -2.21875 2.890625 -2.21875 L 1.53125 -2.21875 L 1.53125 0 L 0.859375 0 L 0.859375 -5.671875 Z M 2.875 -2.796875 C 3.65625 -2.796875 4.046875 -3.179688 4.046875 -3.953125 C 4.046875 -4.722656 3.65625 -5.109375 2.875 -5.109375 L 1.53125 -5.109375 L 1.53125 -2.796875 Z M 2.875 -2.796875 "/></g></g></g><g fill="#ff3131" fill-opacity="1"><g transform="translate(128.960777, 37.635043)"><g><path d="M 1.765625 0.078125 C 1.347656 0.078125 1.019531 -0.03125 0.78125 -0.25 C 0.539062 -0.46875 0.421875 -0.78125 0.421875 -1.1875 C 0.421875 -1.445312 0.472656 -1.660156 0.578125 -1.828125 C 0.679688 -2.003906 0.84375 -2.144531 1.0625 -2.25 C 1.28125 -2.363281 1.570312 -2.453125 1.9375 -2.515625 C 2.238281 -2.566406 2.46875 -2.625 2.625 -2.6875 C 2.789062 -2.75 2.898438 -2.820312 2.953125 -2.90625 C 3.015625 -2.988281 3.046875 -3.09375 3.046875 -3.21875 C 3.046875 -3.40625 2.976562 -3.550781 2.84375 -3.65625 C 2.71875 -3.757812 2.503906 -3.8125 2.203125 -3.8125 C 1.929688 -3.8125 1.695312 -3.753906 1.5 -3.640625 C 1.300781 -3.535156 1.117188 -3.378906 0.953125 -3.171875 L 0.875 -3.171875 L 0.5625 -3.609375 C 0.738281 -3.835938 0.96875 -4.019531 1.25 -4.15625 C 1.53125 -4.289062 1.847656 -4.359375 2.203125 -4.359375 C 2.710938 -4.359375 3.085938 -4.25 3.328125 -4.03125 C 3.566406 -3.8125 3.6875 -3.503906 3.6875 -3.109375 L 3.6875 -0.84375 C 3.6875 -0.601562 3.785156 -0.484375 3.984375 -0.484375 C 4.046875 -0.484375 4.109375 -0.492188 4.171875 -0.515625 L 4.234375 -0.5 L 4.3125 -0.0625 C 4.257812 -0.03125 4.191406 -0.0078125 4.109375 0 C 4.035156 0.0195312 3.960938 0.03125 3.890625 0.03125 C 3.648438 0.03125 3.46875 -0.0195312 3.34375 -0.125 C 3.226562 -0.226562 3.15625 -0.378906 3.125 -0.578125 L 3.046875 -0.59375 C 2.921875 -0.363281 2.753906 -0.191406 2.546875 -0.078125 C 2.335938 0.0234375 2.078125 0.078125 1.765625 0.078125 Z M 1.90625 -0.421875 C 2.144531 -0.421875 2.347656 -0.472656 2.515625 -0.578125 C 2.691406 -0.691406 2.828125 -0.847656 2.921875 -1.046875 C 3.015625 -1.242188 3.0625 -1.476562 3.0625 -1.75 L 3.0625 -2.28125 L 3 -2.296875 C 2.894531 -2.234375 2.773438 -2.175781 2.640625 -2.125 C 2.503906 -2.082031 2.3125 -2.046875 2.0625 -2.015625 C 1.820312 -1.984375 1.628906 -1.929688 1.484375 -1.859375 C 1.335938 -1.785156 1.234375 -1.691406 1.171875 -1.578125 C 1.109375 -1.472656 1.078125 -1.34375 1.078125 -1.1875 C 1.078125 -0.9375 1.148438 -0.742188 1.296875 -0.609375 C 1.441406 -0.484375 1.644531 -0.421875 1.90625 -0.421875 Z M 1.90625 -0.421875 "/></g></g></g><g fill="#ff3131" fill-opacity="1"><g transform="translate(135.663454, 37.635043)"><g><path d="M 0.75 0 L 0.75 -4.28125 L 1.34375 -4.28125 L 1.34375 -3.609375 L 1.421875 -3.59375 C 1.566406 -3.84375 1.75 -4.03125 1.96875 -4.15625 C 2.195312 -4.289062 2.46875 -4.359375 2.78125 -4.359375 C 3.300781 -4.359375 3.675781 -4.226562 3.90625 -3.96875 C 4.132812 -3.707031 4.25 -3.300781 4.25 -2.75 L 4.25 0 L 3.625 0 L 3.625 -2.734375 C 3.625 -2.992188 3.585938 -3.203125 3.515625 -3.359375 C 3.453125 -3.515625 3.347656 -3.628906 3.203125 -3.703125 C 3.066406 -3.773438 2.890625 -3.8125 2.671875 -3.8125 C 2.285156 -3.8125 1.972656 -3.679688 1.734375 -3.421875 C 1.492188 -3.171875 1.375 -2.765625 1.375 -2.203125 L 1.375 0 Z M 0.75 0 "/></g></g></g><g fill="#ff3131" fill-opacity="1"><g transform="translate(142.867469, 37.635043)"><g><path d="M 4.078125 -2 L 1.140625 -2 C 1.160156 -1.476562 1.285156 -1.09375 1.515625 -0.84375 C 1.742188 -0.601562 2.0625 -0.484375 2.46875 -0.484375 C 2.769531 -0.484375 3.015625 -0.535156 3.203125 -0.640625 C 3.390625 -0.753906 3.535156 -0.925781 3.640625 -1.15625 L 3.71875 -1.15625 L 4.140625 -0.921875 C 4.015625 -0.609375 3.8125 -0.363281 3.53125 -0.1875 C 3.257812 -0.0078125 2.90625 0.078125 2.46875 0.078125 C 2.050781 0.078125 1.691406 0 1.390625 -0.15625 C 1.097656 -0.320312 0.867188 -0.570312 0.703125 -0.90625 C 0.546875 -1.238281 0.46875 -1.648438 0.46875 -2.140625 C 0.46875 -2.628906 0.550781 -3.039062 0.71875 -3.375 C 0.894531 -3.707031 1.128906 -3.953125 1.421875 -4.109375 C 1.710938 -4.273438 2.046875 -4.359375 2.421875 -4.359375 C 2.972656 -4.359375 3.398438 -4.203125 3.703125 -3.890625 C 4.015625 -3.585938 4.171875 -3.132812 4.171875 -2.53125 C 4.171875 -2.289062 4.164062 -2.128906 4.15625 -2.046875 Z M 3.546875 -2.53125 C 3.535156 -2.976562 3.4375 -3.304688 3.25 -3.515625 C 3.0625 -3.722656 2.785156 -3.828125 2.421875 -3.828125 C 2.046875 -3.828125 1.75 -3.722656 1.53125 -3.515625 C 1.320312 -3.304688 1.195312 -2.976562 1.15625 -2.53125 Z M 3.546875 -2.53125 "/></g></g></g><g fill="#ff3131" fill-opacity="1"><g transform="translate(149.706168, 37.635043)"><g><path d="M 1.703125 0.078125 C 1.398438 0.078125 1.160156 -0.00390625 0.984375 -0.171875 C 0.816406 -0.347656 0.734375 -0.609375 0.734375 -0.953125 L 0.734375 -6 L 1.359375 -6 L 1.359375 -0.984375 C 1.359375 -0.804688 1.390625 -0.675781 1.453125 -0.59375 C 1.523438 -0.519531 1.632812 -0.484375 1.78125 -0.484375 C 1.875 -0.484375 1.960938 -0.5 2.046875 -0.53125 L 2.109375 -0.515625 L 2.1875 -0.015625 C 2.132812 0.015625 2.066406 0.0351562 1.984375 0.046875 C 1.898438 0.0664062 1.804688 0.078125 1.703125 0.078125 Z M 1.703125 0.078125 "/></g></g></g></svg>